<svg xmlns="http://www.w3.org/2000/svg" viewBox="0 0 64 64" role="img" aria-label="COLMAP">
  <title>COLMAP</title>
  <path d="M50.386 16.573 A24 24 0 1 0 50.386 47.427" fill="none" stroke="#9ca3af" stroke-width="6" stroke-linecap="round"/>
  <g fill="#ef4444">
    <circle cx="54.553" cy="23.792" r="3.0"/>
    <circle cx="56.000" cy="32.000" r="3.0"/>
    <circle cx="54.553" cy="40.208" r="3.0"/>
  </g>
  <g stroke="none">
    <polygon points="32.000,17.000 44.990,24.500 38.062,35.500 38.062,28.500" fill="#6b7280"/>
    <polygon points="44.990,24.500 44.990,39.500 32.000,39.000 38.062,35.500" fill="#9ca3af"/>
    <polygon points="44.990,39.500 32.000,47.000 25.938,35.500 32.000,39.000" fill="#6b7280"/>
    <polygon points="32.000,47.000 19.010,39.500 25.938,28.500 25.938,35.500" fill="#9ca3af"/>
    <polygon points="19.010,39.500 19.010,24.500 32.000,25.000 25.938,28.500" fill="#6b7280"/>
    <polygon points="19.010,24.500 32.000,17.000 38.062,28.500 32.000,25.000" fill="#9ca3af"/>
  </g>
  <polygon points="32.000,27.500 35.897,29.750 35.897,34.250 32.000,36.500 28.103,34.250 28.103,29.750" fill="#ef4444"/></svg>
