<svg xmlns="http://www.w3.org/2000/svg" viewBox="0 0 64 64" role="img" aria-label="COLMAP">
  <title>COLMAP</title>
  <path d="M64.000 32.000 L63.990 40.304 L63.959 43.081 L63.907 45.114 L63.835 46.773 L63.742 48.196 L63.629 49.454 L63.494 50.586 L63.338 51.617 L63.161 52.566 L62.962 53.445 L62.741 54.263 L62.498 55.028 L62.232 55.744 L61.943 56.417 L61.631 57.049 L61.295 57.644 L60.935 58.205 L60.549 58.733 L60.136 59.230 L59.697 59.697 L59.230 60.136 L58.733 60.549 L58.205 60.935 L57.644 61.295 L57.049 61.631 L56.417 61.943 L55.744 62.232 L55.028 62.498 L54.263 62.741 L53.445 62.962 L52.566 63.161 L51.617 63.338 L50.586 63.494 L49.454 63.629 L48.196 63.742 L46.773 63.835 L45.114 63.907 L43.081 63.959 L40.304 63.990 L32.000 64.000 L23.696 63.990 L20.919 63.959 L18.886 63.907 L17.227 63.835 L15.804 63.742 L14.546 63.629 L13.414 63.494 L12.383 63.338 L11.434 63.161 L10.555 62.962 L9.737 62.741 L8.972 62.498 L8.256 62.232 L7.583 61.943 L6.951 61.631 L6.356 61.295 L5.795 60.935 L5.267 60.549 L4.770 60.136 L4.303 59.697 L3.864 59.230 L3.451 58.733 L3.065 58.205 L2.705 57.644 L2.369 57.049 L2.057 56.417 L1.768 55.744 L1.502 55.028 L1.259 54.263 L1.038 53.445 L0.839 52.566 L0.662 51.617 L0.506 50.586 L0.371 49.454 L0.258 48.196 L0.165 46.773 L0.093 45.114 L0.041 43.081 L0.010 40.304 L0.000 32.000 L0.010 23.696 L0.041 20.919 L0.093 18.886 L0.165 17.227 L0.258 15.804 L0.371 14.546 L0.506 13.414 L0.662 12.383 L0.839 11.434 L1.038 10.555 L1.259 9.737 L1.502 8.972 L1.768 8.256 L2.057 7.583 L2.369 6.951 L2.705 6.356 L3.065 5.795 L3.451 5.267 L3.864 4.770 L4.303 4.303 L4.770 3.864 L5.267 3.451 L5.795 3.065 L6.356 2.705 L6.951 2.369 L7.583 2.057 L8.256 1.768 L8.972 1.502 L9.737 1.259 L10.555 1.038 L11.434 0.839 L12.383 0.662 L13.414 0.506 L14.546 0.371 L15.804 0.258 L17.227 0.165 L18.886 0.093 L20.919 0.041 L23.696 0.010 L32.000 0.000 L40.304 0.010 L43.081 0.041 L45.114 0.093 L46.773 0.165 L48.196 0.258 L49.454 0.371 L50.586 0.506 L51.617 0.662 L52.566 0.839 L53.445 1.038 L54.263 1.259 L55.028 1.502 L55.744 1.768 L56.417 2.057 L57.049 2.369 L57.644 2.705 L58.205 3.065 L58.733 3.451 L59.230 3.864 L59.697 4.303 L60.136 4.770 L60.549 5.267 L60.935 5.795 L61.295 6.356 L61.631 6.951 L61.943 7.583 L62.232 8.256 L62.498 8.972 L62.741 9.737 L62.962 10.555 L63.161 11.434 L63.338 12.383 L63.494 13.414 L63.629 14.546 L63.742 15.804 L63.835 17.227 L63.907 18.886 L63.959 20.919 L63.990 23.696 Z" fill="#374151"/>
  <path d="M50.386 16.573 A24 24 0 1 0 50.386 47.427" fill="none" stroke="#e5e7eb" stroke-width="6" stroke-linecap="round"/>
  <g fill="#ef4444">
    <circle cx="54.553" cy="23.792" r="3.0"/>
    <circle cx="56.000" cy="32.000" r="3.0"/>
    <circle cx="54.553" cy="40.208" r="3.0"/>
  </g>
  <g stroke="none">
    <polygon points="32.000,17.000 44.990,24.500 38.062,35.500 38.062,28.500" fill="#9ca3af"/>
    <polygon points="44.990,24.500 44.990,39.500 32.000,39.000 38.062,35.500" fill="#d1d5db"/>
    <polygon points="44.990,39.500 32.000,47.000 25.938,35.500 32.000,39.000" fill="#9ca3af"/>
    <polygon points="32.000,47.000 19.010,39.500 25.938,28.500 25.938,35.500" fill="#d1d5db"/>
    <polygon points="19.010,39.500 19.010,24.500 32.000,25.000 25.938,28.500" fill="#9ca3af"/>
    <polygon points="19.010,24.500 32.000,17.000 38.062,28.500 32.000,25.000" fill="#d1d5db"/>
  </g>
  <polygon points="32.000,27.500 35.897,29.750 35.897,34.250 32.000,36.500 28.103,34.250 28.103,29.750" fill="#ef4444"/></svg>
