<svg xmlns="http://www.w3.org/2000/svg" viewBox="0 0 64 64" role="img" aria-label="COLMAP">
  <title>COLMAP</title>
  <defs>
    <linearGradient id="cm_bg" x1="0" y1="0" x2="0" y2="1">
      <stop offset="0" stop-color="#3d4657"/>
      <stop offset="1" stop-color="#1b2230"/>
    </linearGradient>
    <linearGradient id="cm_sheen" x1="0" y1="0" x2="0" y2="1">
      <stop offset="0" stop-color="#ffffff" stop-opacity="0.30"/>
      <stop offset="0.55" stop-color="#ffffff" stop-opacity="0.04"/>
      <stop offset="0.75" stop-color="#ffffff" stop-opacity="0"/>
    </linearGradient>
    <clipPath id="cm_clip"><path d="M64.000 32.000 L63.990 40.304 L63.959 43.081 L63.907 45.114 L63.835 46.773 L63.742 48.196 L63.629 49.454 L63.494 50.586 L63.338 51.617 L63.161 52.566 L62.962 53.445 L62.741 54.263 L62.498 55.028 L62.232 55.744 L61.943 56.417 L61.631 57.049 L61.295 57.644 L60.935 58.205 L60.549 58.733 L60.136 59.230 L59.697 59.697 L59.230 60.136 L58.733 60.549 L58.205 60.935 L57.644 61.295 L57.049 61.631 L56.417 61.943 L55.744 62.232 L55.028 62.498 L54.263 62.741 L53.445 62.962 L52.566 63.161 L51.617 63.338 L50.586 63.494 L49.454 63.629 L48.196 63.742 L46.773 63.835 L45.114 63.907 L43.081 63.959 L40.304 63.990 L32.000 64.000 L23.696 63.990 L20.919 63.959 L18.886 63.907 L17.227 63.835 L15.804 63.742 L14.546 63.629 L13.414 63.494 L12.383 63.338 L11.434 63.161 L10.555 62.962 L9.737 62.741 L8.972 62.498 L8.256 62.232 L7.583 61.943 L6.951 61.631 L6.356 61.295 L5.795 60.935 L5.267 60.549 L4.770 60.136 L4.303 59.697 L3.864 59.230 L3.451 58.733 L3.065 58.205 L2.705 57.644 L2.369 57.049 L2.057 56.417 L1.768 55.744 L1.502 55.028 L1.259 54.263 L1.038 53.445 L0.839 52.566 L0.662 51.617 L0.506 50.586 L0.371 49.454 L0.258 48.196 L0.165 46.773 L0.093 45.114 L0.041 43.081 L0.010 40.304 L0.000 32.000 L0.010 23.696 L0.041 20.919 L0.093 18.886 L0.165 17.227 L0.258 15.804 L0.371 14.546 L0.506 13.414 L0.662 12.383 L0.839 11.434 L1.038 10.555 L1.259 9.737 L1.502 8.972 L1.768 8.256 L2.057 7.583 L2.369 6.951 L2.705 6.356 L3.065 5.795 L3.451 5.267 L3.864 4.770 L4.303 4.303 L4.770 3.864 L5.267 3.451 L5.795 3.065 L6.356 2.705 L6.951 2.369 L7.583 2.057 L8.256 1.768 L8.972 1.502 L9.737 1.259 L10.555 1.038 L11.434 0.839 L12.383 0.662 L13.414 0.506 L14.546 0.371 L15.804 0.258 L17.227 0.165 L18.886 0.093 L20.919 0.041 L23.696 0.010 L32.000 0.000 L40.304 0.010 L43.081 0.041 L45.114 0.093 L46.773 0.165 L48.196 0.258 L49.454 0.371 L50.586 0.506 L51.617 0.662 L52.566 0.839 L53.445 1.038 L54.263 1.259 L55.028 1.502 L55.744 1.768 L56.417 2.057 L57.049 2.369 L57.644 2.705 L58.205 3.065 L58.733 3.451 L59.230 3.864 L59.697 4.303 L60.136 4.770 L60.549 5.267 L60.935 5.795 L61.295 6.356 L61.631 6.951 L61.943 7.583 L62.232 8.256 L62.498 8.972 L62.741 9.737 L62.962 10.555 L63.161 11.434 L63.338 12.383 L63.494 13.414 L63.629 14.546 L63.742 15.804 L63.835 17.227 L63.907 18.886 L63.959 20.919 L63.990 23.696 Z"/></clipPath>
    <filter id="cm_blur" x="-30%" y="-30%" width="160%" height="160%">
      <feGaussianBlur stdDeviation="2.2"/>
    </filter>
  </defs>

  <!-- Glass tile: gradient base, top specular sheen and a soft highlight. -->
  <g clip-path="url(#cm_clip)">
    <path d="M64.000 32.000 L63.990 40.304 L63.959 43.081 L63.907 45.114 L63.835 46.773 L63.742 48.196 L63.629 49.454 L63.494 50.586 L63.338 51.617 L63.161 52.566 L62.962 53.445 L62.741 54.263 L62.498 55.028 L62.232 55.744 L61.943 56.417 L61.631 57.049 L61.295 57.644 L60.935 58.205 L60.549 58.733 L60.136 59.230 L59.697 59.697 L59.230 60.136 L58.733 60.549 L58.205 60.935 L57.644 61.295 L57.049 61.631 L56.417 61.943 L55.744 62.232 L55.028 62.498 L54.263 62.741 L53.445 62.962 L52.566 63.161 L51.617 63.338 L50.586 63.494 L49.454 63.629 L48.196 63.742 L46.773 63.835 L45.114 63.907 L43.081 63.959 L40.304 63.990 L32.000 64.000 L23.696 63.990 L20.919 63.959 L18.886 63.907 L17.227 63.835 L15.804 63.742 L14.546 63.629 L13.414 63.494 L12.383 63.338 L11.434 63.161 L10.555 62.962 L9.737 62.741 L8.972 62.498 L8.256 62.232 L7.583 61.943 L6.951 61.631 L6.356 61.295 L5.795 60.935 L5.267 60.549 L4.770 60.136 L4.303 59.697 L3.864 59.230 L3.451 58.733 L3.065 58.205 L2.705 57.644 L2.369 57.049 L2.057 56.417 L1.768 55.744 L1.502 55.028 L1.259 54.263 L1.038 53.445 L0.839 52.566 L0.662 51.617 L0.506 50.586 L0.371 49.454 L0.258 48.196 L0.165 46.773 L0.093 45.114 L0.041 43.081 L0.010 40.304 L0.000 32.000 L0.010 23.696 L0.041 20.919 L0.093 18.886 L0.165 17.227 L0.258 15.804 L0.371 14.546 L0.506 13.414 L0.662 12.383 L0.839 11.434 L1.038 10.555 L1.259 9.737 L1.502 8.972 L1.768 8.256 L2.057 7.583 L2.369 6.951 L2.705 6.356 L3.065 5.795 L3.451 5.267 L3.864 4.770 L4.303 4.303 L4.770 3.864 L5.267 3.451 L5.795 3.065 L6.356 2.705 L6.951 2.369 L7.583 2.057 L8.256 1.768 L8.972 1.502 L9.737 1.259 L10.555 1.038 L11.434 0.839 L12.383 0.662 L13.414 0.506 L14.546 0.371 L15.804 0.258 L17.227 0.165 L18.886 0.093 L20.919 0.041 L23.696 0.010 L32.000 0.000 L40.304 0.010 L43.081 0.041 L45.114 0.093 L46.773 0.165 L48.196 0.258 L49.454 0.371 L50.586 0.506 L51.617 0.662 L52.566 0.839 L53.445 1.038 L54.263 1.259 L55.028 1.502 L55.744 1.768 L56.417 2.057 L57.049 2.369 L57.644 2.705 L58.205 3.065 L58.733 3.451 L59.230 3.864 L59.697 4.303 L60.136 4.770 L60.549 5.267 L60.935 5.795 L61.295 6.356 L61.631 6.951 L61.943 7.583 L62.232 8.256 L62.498 8.972 L62.741 9.737 L62.962 10.555 L63.161 11.434 L63.338 12.383 L63.494 13.414 L63.629 14.546 L63.742 15.804 L63.835 17.227 L63.907 18.886 L63.959 20.919 L63.990 23.696 Z" fill="url(#cm_bg)"/>
    <ellipse cx="24" cy="10" rx="22" ry="9" fill="#ffffff" fill-opacity="0.18" filter="url(#cm_blur)"/>
    <rect x="0" y="0" width="64" height="40" fill="url(#cm_sheen)"/>
  </g>
  <!-- Rim highlight (glass edge). -->
  <path d="M63.200 32.000 L63.190 40.097 L63.160 42.804 L63.110 44.786 L63.039 46.403 L62.949 47.791 L62.838 49.018 L62.706 50.121 L62.554 51.127 L62.382 52.052 L62.188 52.909 L61.972 53.707 L61.735 54.452 L61.476 55.150 L61.195 55.806 L60.891 56.423 L60.563 57.003 L60.211 57.550 L59.835 58.064 L59.433 58.549 L59.005 59.005 L58.549 59.433 L58.064 59.835 L57.550 60.211 L57.003 60.563 L56.423 60.891 L55.806 61.195 L55.150 61.476 L54.452 61.735 L53.707 61.972 L52.909 62.188 L52.052 62.382 L51.127 62.554 L50.121 62.706 L49.018 62.838 L47.791 62.949 L46.403 63.039 L44.786 63.110 L42.804 63.160 L40.097 63.190 L32.000 63.200 L23.903 63.190 L21.196 63.160 L19.214 63.110 L17.597 63.039 L16.209 62.949 L14.982 62.838 L13.879 62.706 L12.873 62.554 L11.948 62.382 L11.091 62.188 L10.293 61.972 L9.548 61.735 L8.850 61.476 L8.194 61.195 L7.577 60.891 L6.997 60.563 L6.450 60.211 L5.936 59.835 L5.451 59.433 L4.995 59.005 L4.567 58.549 L4.165 58.064 L3.789 57.550 L3.437 57.003 L3.109 56.423 L2.805 55.806 L2.524 55.150 L2.265 54.452 L2.028 53.707 L1.812 52.909 L1.618 52.052 L1.446 51.127 L1.294 50.121 L1.162 49.018 L1.051 47.791 L0.961 46.403 L0.890 44.786 L0.840 42.804 L0.810 40.097 L0.800 32.000 L0.810 23.903 L0.840 21.196 L0.890 19.214 L0.961 17.597 L1.051 16.209 L1.162 14.982 L1.294 13.879 L1.446 12.873 L1.618 11.948 L1.812 11.091 L2.028 10.293 L2.265 9.548 L2.524 8.850 L2.805 8.194 L3.109 7.577 L3.437 6.997 L3.789 6.450 L4.165 5.936 L4.567 5.451 L4.995 4.995 L5.451 4.567 L5.936 4.165 L6.450 3.789 L6.997 3.437 L7.577 3.109 L8.194 2.805 L8.850 2.524 L9.548 2.265 L10.293 2.028 L11.091 1.812 L11.948 1.618 L12.873 1.446 L13.879 1.294 L14.982 1.162 L16.209 1.051 L17.597 0.961 L19.214 0.890 L21.196 0.840 L23.903 0.810 L32.000 0.800 L40.097 0.810 L42.804 0.840 L44.786 0.890 L46.403 0.961 L47.791 1.051 L49.018 1.162 L50.121 1.294 L51.127 1.446 L52.052 1.618 L52.909 1.812 L53.707 2.028 L54.452 2.265 L55.150 2.524 L55.806 2.805 L56.423 3.109 L57.003 3.437 L57.550 3.789 L58.064 4.165 L58.549 4.567 L59.005 4.995 L59.433 5.451 L59.835 5.936 L60.211 6.450 L60.563 6.997 L60.891 7.577 L61.195 8.194 L61.476 8.850 L61.735 9.548 L61.972 10.293 L62.188 11.091 L62.382 11.948 L62.554 12.873 L62.706 13.879 L62.838 14.982 L62.949 16.209 L63.039 17.597 L63.110 19.214 L63.160 21.196 L63.190 23.903 Z" fill="none" stroke="#ffffff" stroke-opacity="0.28" stroke-width="0.8"/>

  <!-- COLMAP aperture-in-C mark. -->
  <path d="M50.386 16.573 A24 24 0 1 0 50.386 47.427" fill="none" stroke="#e5e7eb" stroke-width="5" stroke-linecap="square"/>
  <g stroke="none">
    <polygon points="32.000,17.000 44.990,24.500 38.062,35.500 38.062,28.500" fill="#9ca3af"/>
    <polygon points="44.990,24.500 44.990,39.500 32.000,39.000 38.062,35.500" fill="#d1d5db"/>
    <polygon points="44.990,39.500 32.000,47.000 25.938,35.500 32.000,39.000" fill="#9ca3af"/>
    <polygon points="32.000,47.000 19.010,39.500 25.938,28.500 25.938,35.500" fill="#d1d5db"/>
    <polygon points="19.010,39.500 19.010,24.500 32.000,25.000 25.938,28.500" fill="#9ca3af"/>
    <polygon points="19.010,24.500 32.000,17.000 38.062,28.500 32.000,25.000" fill="#d1d5db"/>
  </g>
  <polygon points="32.000,27.500 35.897,29.750 35.897,34.250 32.000,36.500 28.103,34.250 28.103,29.750" fill="#ef4444"/>
</svg>
