<svg xmlns="http://www.w3.org/2000/svg" width="48" height="48" viewBox="0 -960 960 960"><path d="M180-120q-24 0-42-18t-18-42v-172h60v172h172v60H180Zm428 0v-60h172v-172h60v172q0 24-18 42t-42 18H608ZM120-608v-172q0-24 18-42t42-18h172v60H180v172h-60Zm660 0v-172H608v-60h172q24 0 42 18t18 42v172h-60ZM347.5-347.5Q293-402 293-480t54.5-132.5Q402-667 480-667t132.5 54.5Q667-558 667-480t-54.5 132.5Q558-293 480-293t-132.5-54.5Zm223-42Q607-426 607-480t-36.5-90.5Q534-607 480-607t-90.5 36.5Q353-534 353-480t36.5 90.5Q426-353 480-353t90.5-36.5ZM480-480Z"/></svg>