<svg xmlns="http://www.w3.org/2000/svg" width="48" height="48" viewBox="0 -960 960 960"><path d="M213-375q-11-11-11-27t11-27q11-11 27-11t27 11q11 11 11 27t-11 27q-11 11-27 11t-27-11Zm0 162q-11-11-11-27t11-27q11-11 27-11t27 11q11 11 11 27t-11 27q-11 11-27 11t-27-11Zm0-318q-11-11-11-27t11-27q11-11 27-11t27 11q11 11 11 27t-11 27q-11 11-27 11t-27-11Zm-107-12q-6-6-6-15t6-15q6-6 15-6t15 6q6 6 6 15t-6 15q-6 6-15 6t-15-6Zm107-150q-11-11-11-27t11-27q11-11 27-11t27 11q11 11 11 27t-11 27q-11 11-27 11t-27-11ZM106-387q-6-6-6-15t6-15q6-6 15-6t15 6q6 6 6 15t-6 15q-6 6-15 6t-15-6Zm281 281q-6-6-6-15t6-15q6-6 15-6t15 6q6 6 6 15t-6 15q-6 6-15 6t-15-6Zm0-718q-6-6-6-15t6-15q6-6 15-6t15 6q6 6 6 15t-6 15q-6 6-15 6t-15-6Zm-12 131q-11-11-11-27t11-27q11-11 27-11t27 11q11 11 11 27t-11 27q-11 11-27 11t-27-11Zm-11.5 329.5Q348-379 348-402t15.5-38.5Q379-456 402-456t38.5 15.5Q456-425 456-402t-15.5 38.5Q425-348 402-348t-38.5-15.5Zm0-156Q348-535 348-558t15.5-38.5Q379-612 402-612t38.5 15.5Q456-581 456-558t-15.5 38.5Q425-504 402-504t-38.5-15.5ZM375-213q-11-11-11-27t11-27q11-11 27-11t27 11q11 11 11 27t-11 27q-11 11-27 11t-27-11Zm115 83v-60q117-5 198.5-88.5T770-480q0-118-81.5-201.5T490-770v-60q71 2 132.5 30.5t108 75.5q46.5 47 73 110T830-480q0 71-26.5 134t-73 110q-46.5 47-108 75.5T490-130Zm0-350Z"/></svg>